HIERARCHY
ROOT Hips
{
	OFFSET 0.00000 0.00000 0.00000
	CHANNELS 6 Xposition Yposition Zposition Zrotation Yrotation Xrotation 
	JOINT LHipJoint
	{
		OFFSET 0 0 0
		CHANNELS 3 Zrotation Yrotation Xrotation
		JOINT LeftHip
		{
			OFFSET 1.53927 -1.56553 0.51726
			CHANNELS 3 Zrotation Yrotation Xrotation
			JOINT LeftKnee
			{
				OFFSET 2.38199 -6.54447 0.00000
				CHANNELS 3 Zrotation Yrotation Xrotation
				JOINT LeftAnkle
				{
					OFFSET 2.35499 -6.47028 0.00000
					CHANNELS 3 Zrotation Yrotation Xrotation
					JOINT LeftToe
					{
						OFFSET 0.13641 -0.37478 1.84251
						CHANNELS 3 Zrotation Yrotation Xrotation
						End Site
						{
							OFFSET 0.00000 -0.00000 0.95212
						}
					}
				}
			}
		}
	}
	JOINT RHipJoint
	{
		OFFSET 0 0 0
		CHANNELS 3 Zrotation Yrotation Xrotation
		JOINT RightHip
		{
			OFFSET -1.43919 -1.56553 0.51726
			CHANNELS 3 Zrotation Yrotation Xrotation
			JOINT RightKnee
			{
				OFFSET -2.34860 -6.45274 0.00000
				CHANNELS 3 Zrotation Yrotation Xrotation
				JOINT RightAnkle
				{
					OFFSET -2.25563 -6.19730 0.00000
					CHANNELS 3 Zrotation Yrotation Xrotation
					JOINT RightToe
					{
						OFFSET -0.19755 -0.54277 1.84912
						CHANNELS 3 Zrotation Yrotation Xrotation
						End Site
						{
							OFFSET -0.00000 -0.00000 0.97032
						}
					}
				}
			}
		}
	}
	JOINT lowerback
	{
		OFFSET 0 0 0
		CHANNELS 3 Zrotation Yrotation Xrotation
		JOINT Chest
		{
			OFFSET -0.06402 1.88434 -0.00445
			CHANNELS 3 Zrotation Yrotation Xrotation
			JOINT Chest2
			{
				OFFSET 0.00756 1.88511 0.04237
				CHANNELS 3 Zrotation Yrotation Xrotation
				JOINT lowerneck
				{
					OFFSET 0 0 0
					CHANNELS 3 Zrotation Yrotation Xrotation
					JOINT Neck
					{
						OFFSET -0.06230 1.34710 0.03308
						CHANNELS 3 Zrotation Yrotation Xrotation
						JOINT Head
						{
							OFFSET -0.02442 1.34501 -0.13654
							CHANNELS 3 Zrotation Yrotation Xrotation
							End Site
							{
								OFFSET -0.00508 1.35584 -0.05075
							}
						}
					}
				}
				JOINT LeftCollar
				{
					OFFSET 0 0 0
					CHANNELS 3 Zrotation Yrotation Xrotation
					JOINT LeftShoulder
					{
						OFFSET 2.76911 0.54460 0.39412
CHANNELS 3 Zrotation Xrotation Yrotation
						JOINT LeftElbow
						{
OFFSET 0 -4.409190 -0.000000
CHANNELS 3 Zrotation Xrotation Yrotation
							JOINT LeftWrist
							{
OFFSET 0 -3.038570 -0.000000
CHANNELS 3 Zrotation Xrotation Yrotation
								JOINT lhand
								{
									OFFSET 0 0 0
CHANNELS 3 Zrotation Xrotation Yrotation
									JOINT LFingers
									{
OFFSET 0 -0.523210 -0.000000
CHANNELS 3 Zrotation Xrotation Yrotation
										End Site
										{
OFFSET 0 -0.421820 -0.000000
										}
									}
								}
								JOINT LThumb
								{
OFFSET 0 0.000000 0.000000
CHANNELS 3 Zrotation Xrotation Yrotation
									End Site
									{
OFFSET 0 -0.428260 0.428260
									}
								}
							}
						}
					}
				}
				JOINT RightCollar
				{
					OFFSET 0 0 0
					CHANNELS 3 Zrotation Yrotation Xrotation
					JOINT RightShoulder
					{
						OFFSET -2.99050 0.75949 0.48975
CHANNELS 3 Zrotation Xrotation Yrotation
						JOINT RightElbow
						{
OFFSET 0 -4.619690 -0.000000
CHANNELS 3 Zrotation Xrotation Yrotation
							JOINT RightWrist
							{
OFFSET 0 -3.093820 -0.000000
CHANNELS 3 Zrotation Xrotation Yrotation
								JOINT rhand
								{
									OFFSET 0 0 0
CHANNELS 3 Zrotation Xrotation Yrotation
									JOINT RFingers
									{
OFFSET 0 -0.500900 -0.000000
CHANNELS 3 Zrotation Xrotation Yrotation
										End Site
										{
OFFSET 0 -0.403840 -0.000000
										}
									}
								}
								JOINT RThumb
								{
OFFSET 0 0.000000 0.000000
CHANNELS 3 Zrotation Xrotation Yrotation
									End Site
									{
OFFSET 0 -0.410000 0.410000
									}
								}
							}
						}
					}
				}
			}
		}
	}
}
MOTION
Frames: 8
Frame Time: 0.008333333333333333
3.057511 16.294403 -0.037935 174.761596 -64.253289 -165.889352 0.000000 0.000000 0.000000 -23.848459 -13.188444 -6.760806 1.155497 6.824827 19.197580 -2.031666 29.536707 -29.725875 2.743688 10.268083 29.849212 0.000000 0.000000 0.000000 9.495225 31.749722 -10.502738 -1.015827 -6.412277 17.985402 -0.296659 1.266881 -9.922334 -0.000762 -0.175458 0.481978 -2.220997 -0.429810 -4.283472 0.014774 -0.648715 -4.269669 1.245286 -0.324538 -1.966188 10.602712 17.166132 3.062567 -8.863018 24.187674 21.778105 -2.601065 11.442876 8.743522 0.000000 0.000000 0.000000 -0.915531 24.123666 -10.146919 31.296208 -41.978817 12.267526 28.810227 1.415811 12.027821 0.000000 0.000000 0.000000 -7.125000 0.000000 0.000000 1.106928 16.314437 0.751545 0.000000 0.000000 0.000000 -0.658497 21.556037 12.957283 -25.147558 -36.354450 -8.377251 -22.403487 17.346684 44.399675 0.000000 0.000000 0.000000 7.125000 0.000000 0.000000 29.466372 74.972236 -21.231859
3.055440 16.294391 -0.040418 174.736205 -64.375743 -165.963035 0.000000 0.000000 0.000000 -23.836521 -13.313904 -6.597368 1.154131 6.820988 19.186253 -1.982239 29.450237 -29.914114 2.753391 10.284686 29.903749 0.000000 0.000000 0.000000 9.594279 31.612693 -10.395535 -1.022392 -6.432371 18.044338 -0.299106 1.259020 -9.965384 -0.000394 -0.123074 0.338230 -2.345022 -0.543503 -4.065793 0.092610 -0.806785 -4.383382 1.394236 -0.396992 -2.197347 10.675936 16.808237 3.655726 -9.303979 23.748765 21.180817 -2.877472 11.253726 8.452498 0.000000 0.000000 0.000000 -1.187717 24.683686 -9.704322 31.380764 -42.047857 12.324010 29.085179 0.972469 12.320746 0.000000 0.000000 0.000000 -7.125000 0.000000 0.000000 1.270407 15.949555 0.872644 0.000000 0.000000 0.000000 -0.879386 21.627808 13.327964 -25.113433 -36.319667 -8.356947 -22.903361 17.385946 43.046389 0.000000 0.000000 0.000000 7.125000 0.000000 0.000000 25.696348 74.059081 -17.941266
3.049195 16.290019 -0.046925 174.626683 -64.439422 -165.962935 0.000000 0.000000 0.000000 -23.914353 -13.102733 -6.520427 1.155767 6.825477 19.199247 -2.129354 29.686271 -29.299449 2.627327 10.065678 29.189768 0.000000 0.000000 0.000000 9.656957 31.435304 -10.293865 -1.030725 -6.457674 18.118273 -0.300421 1.343757 -9.969830 -0.000062 0.040660 -0.111734 -2.453708 -0.489560 -4.201151 0.126494 -0.721861 -4.267435 1.489542 -0.352416 -2.003935 10.526415 16.363634 3.963141 -9.732085 23.181084 20.562383 -3.110800 10.982742 8.156958 0.000000 0.000000 0.000000 -1.391462 24.842412 -9.445740 31.751791 -42.348312 12.573302 28.872680 1.151511 12.145166 0.000000 0.000000 0.000000 -7.125000 0.000000 0.000000 1.139716 16.174466 0.777242 0.000000 0.000000 0.000000 -0.962767 21.668413 13.276270 -25.403281 -36.613262 -8.529311 -22.502445 17.066976 43.210746 0.000000 0.000000 0.000000 7.125000 0.000000 0.000000 26.569507 74.048494 -18.565716
3.049460 16.291553 -0.049187 174.625165 -64.690894 -165.969967 0.000000 0.000000 0.000000 -23.825988 -13.122689 -6.566438 1.162715 6.845312 19.257901 -1.980586 29.216923 -29.407879 2.679962 10.157837 29.489421 0.000000 0.000000 0.000000 9.715783 31.382970 -10.239931 -1.030492 -6.456975 18.116313 -0.304906 1.190098 -10.081020 0.000000 -0.022779 0.062588 -2.444159 -0.558723 -4.271852 0.174874 -0.815979 -4.329119 1.531472 -0.399642 -2.023485 9.776670 16.223932 2.977796 -8.703221 22.821667 21.595215 -2.638729 10.750202 8.416053 0.000000 0.000000 0.000000 -1.549451 25.085214 -9.187044 31.694359 -42.302119 12.534655 29.257053 0.850692 12.272043 0.000000 0.000000 0.000000 -7.125000 0.000000 0.000000 1.393086 15.982432 0.955902 0.000000 0.000000 0.000000 -1.032604 21.992631 13.342490 -25.849296 -37.059489 -8.796700 -23.555639 17.843539 43.904617 0.000000 0.000000 0.000000 7.125000 0.000000 0.000000 26.790064 75.010023 -19.257275
3.047709 16.293555 -0.052772 174.592147 -64.989307 -165.830533 0.000000 0.000000 0.000000 -23.733388 -13.072995 -6.777032 1.170681 6.867876 19.324538 -2.013821 29.119480 -28.922758 2.453133 9.751792 28.176955 0.000000 0.000000 0.000000 9.706489 31.320487 -10.252001 -1.025066 -6.440498 18.068093 -0.308379 0.996073 -10.186064 -0.000283 0.110507 -0.303541 -2.643788 -0.844903 -4.386433 0.323144 -1.193384 -4.409930 1.784789 -0.582617 -2.020914 9.483027 15.761627 2.854631 -8.989772 22.208901 21.280584 -2.766915 10.422915 8.260908 0.000000 0.000000 0.000000 -2.145929 25.351488 -8.100917 31.816139 -42.400111 12.616634 29.143898 0.908673 11.975100 0.000000 0.000000 0.000000 -7.125000 0.000000 0.000000 1.342008 16.332333 0.910706 0.000000 0.000000 0.000000 -1.343816 21.812990 13.632524 -25.726956 -36.937822 -8.723095 -21.967161 16.109658 41.554574 0.000000 0.000000 0.000000 7.125000 0.000000 0.000000 23.939141 72.460009 -15.867162
3.014890 16.283192 -0.049144 174.716558 -65.025536 -166.633638 0.000000 0.000000 0.000000 -24.010396 -13.381157 -5.656283 1.162337 6.844318 19.254890 -1.916475 29.173517 -29.794390 2.763124 10.295487 29.944578 0.000000 0.000000 0.000000 10.136561 30.990528 -9.440808 -1.043520 -6.496471 18.231969 -0.319069 1.330025 -10.289594 -0.000275 0.094109 -0.258561 -2.389947 -0.869506 -4.323114 0.289922 -1.212947 -4.069062 1.604555 -0.599070 -1.706957 8.721719 15.219471 2.050735 -8.523450 21.373704 21.616684 -2.554577 9.962266 8.280754 0.000000 0.000000 0.000000 -2.245182 25.273226 -7.609387 31.645861 -42.262990 12.502064 29.330361 0.769906 12.668779 0.000000 0.000000 0.000000 -7.125000 0.000000 0.000000 1.406447 15.524419 0.979041 0.000000 0.000000 0.000000 -1.293963 21.897704 13.330347 -26.174837 -37.380074 -8.993889 -22.041180 16.607796 42.780147 0.000000 0.000000 0.000000 7.125000 0.000000 0.000000 26.285113 73.520881 -18.081150
2.999068 16.277079 -0.045864 174.536224 -65.131403 -166.795803 0.000000 0.000000 0.000000 -24.195112 -13.141616 -5.316028 1.163924 6.848694 19.267866 -1.777304 28.577165 -29.593383 2.807659 10.376796 30.205839 0.000000 0.000000 0.000000 10.169850 30.838830 -9.100397 -1.056611 -6.535734 18.347034 -0.331121 1.576173 -10.434213 -0.001579 -0.222876 0.612273 -2.507515 -0.953606 -4.284079 0.349183 -1.320195 -4.045122 1.728695 -0.648822 -1.695643 8.248168 14.489683 1.882210 -8.463046 20.342618 21.616962 -2.584519 9.431875 8.145876 0.000000 0.000000 0.000000 -2.644600 25.682331 -7.082718 31.935058 -42.495101 12.696992 29.118584 1.251864 11.929059 0.000000 0.000000 0.000000 -7.125000 0.000000 0.000000 1.328661 16.387500 0.900125 0.000000 0.000000 0.000000 -1.324578 22.427221 13.093928 -26.840742 -38.026676 -9.400879 -21.461973 16.207871 43.860728 0.000000 0.000000 0.000000 7.125000 0.000000 0.000000 29.336225 74.193122 -20.663501
3.001027 16.274343 -0.031766 174.529594 -65.426589 -166.757594 0.000000 0.000000 0.000000 -24.162852 -12.652099 -5.752688 1.197126 6.942405 19.544899 -1.665393 27.485803 -28.145269 3.195860 11.005457 32.298427 0.000000 0.000000 0.000000 10.078456 30.433933 -9.286423 -1.054846 -6.530524 18.331856 -0.313549 1.760022 -10.110689 -0.003886 0.404878 -1.112546 -2.598224 -1.172734 -4.212588 0.454330 -1.614320 -4.120683 1.881675 -0.791474 -1.794637 7.654320 13.719037 1.750319 -8.544919 19.270019 21.184424 -2.650859 8.884438 7.861810 0.000000 0.000000 0.000000 -3.107284 26.060478 -6.416839 32.424460 -42.883022 13.028746 28.856523 0.848279 12.324831 0.000000 0.000000 0.000000 -7.125000 0.000000 0.000000 1.112620 15.974154 0.763524 0.000000 0.000000 0.000000 -1.469915 22.553025 12.860442 -27.293071 -38.457253 -9.680858 -21.558411 16.129777 43.772650 0.000000 0.000000 0.000000 7.125000 0.000000 0.000000 29.013622 74.158293 -20.406102
